<svg version="1.0" width="1280px" height="640px" viewBox="0 0 1280.000000 640.000000" preserveAspectRatio="xMidYMid meet" xmlns="http://www.w3.org/2000/svg" xmlns:bx="https://boxy-svg.com">
  <defs>
    <clipPath id="a">
      <path d="M239.03 226.605l-42.13 24.317c-1.578.91-2.546 2.59-2.546 4.406v48.668c0 1.817.968 3.496 2.546 4.406l42.133 24.336c1.575.907 3.517.907 5.09 0l42.126-24.336c1.57-.91 2.54-2.59 2.54-4.406v-48.668c0-1.816-.97-3.496-2.55-4.406l-42.12-24.317c-.79-.453-1.67-.68-2.55-.68-.88 0-1.76.227-2.55.68"></path>
    </clipPath>
    <linearGradient id="b" x1="-.348" x2="1.251" gradientTransform="rotate(116.114 53.1 202.97) scale(86.48)" gradientUnits="userSpaceOnUse">
      <stop offset="0.3" stop-color="#3E863D"></stop>
      <stop offset="0.5" stop-color="#55934F"></stop>
      <stop offset="0.8" stop-color="#5AAD45"></stop>
    </linearGradient>
    <clipPath id="c">
      <path d="M195.398 307.086c.403.523.907.976 1.5 1.316l36.14 20.875 6.02 3.46c.9.52 1.926.74 2.934.665.336-.027.672-.09 1-.183l44.434-81.36c-.34-.37-.738-.68-1.184-.94l-27.586-15.93-14.582-8.39c-.414-.24-.863-.41-1.32-.53zm0 0"></path>
    </clipPath>
    <linearGradient id="d" x1="-.456" x2=".582" gradientTransform="rotate(-36.46 550.846 -214.337) scale(132.798)" gradientUnits="userSpaceOnUse">
      <stop offset="0.57" stop-color="#3E863D"></stop>
      <stop offset="0.72" stop-color="#619857"></stop>
      <stop offset="1" stop-color="#76AC64"></stop>
    </linearGradient>
    <clipPath id="e">
      <path d="M241.066 225.953c-.707.07-1.398.29-2.035.652l-42.01 24.247 45.3 82.51c.63-.09 1.25-.3 1.81-.624l42.13-24.336c1.3-.754 2.19-2.03 2.46-3.476l-46.18-78.89c-.34-.067-.68-.102-1.03-.102-.14 0-.28.007-.42.02"></path>
    </clipPath>
    <linearGradient id="f" x1=".043" x2=".984" gradientTransform="translate(192.862 279.652) scale(97.417)" gradientUnits="userSpaceOnUse">
      <stop offset="0.16" stop-color="#6BBF47"></stop>
      <stop offset="0.38" stop-color="#79B461"></stop>
      <stop offset="0.47" stop-color="#75AC64"></stop>
      <stop offset="0.7" stop-color="#659E5A"></stop>
      <stop offset="0.9" stop-color="#3E863D"></stop>
    </linearGradient>
    <bx:grid x="0" y="0" width="39.987" height="39.987"></bx:grid>
    <bx:guide x="660.305" y="136.874" angle="0"></bx:guide>
    <bx:guide x="659.553" y="312.855" angle="90"></bx:guide>
  </defs>
  <rect x="40" y="40" width="1200" height="560" style="fill: rgb(13, 17, 23);"></rect>
  <path d="M 647.737 100.79 C 619.762 104.253 594.982 118.104 577.397 140.071 C 537.306 190.118 550.669 264.19 605.803 297.465 C 631.179 312.778 662.67 316.673 691.562 307.962 C 698.108 306.015 707.795 301.848 707.795 300.983 C 707.795 300.062 704.006 293.353 701.41 289.674 C 700.328 288.159 699.408 286.807 699.353 286.697 C 699.246 286.644 696.811 287.51 693.889 288.7 C 682.31 293.408 673.979 294.976 660.452 294.976 C 651.956 294.976 649.143 294.759 644.058 293.786 C 615.598 288.105 592.44 270.196 580.103 244.334 C 561.003 204.294 574.747 155.87 612.027 131.739 C 638.809 114.425 671.976 112.585 700.382 126.815 C 743.397 148.402 761.523 200.939 740.854 244.225 C 738.148 249.851 732.9 258.508 732.141 258.508 C 731.926 258.508 715.693 230.753 696.108 196.828 C 676.521 162.905 660.345 135.148 660.181 135.148 C 660.017 135.148 645.409 160.413 627.827 191.255 C 610.186 222.15 592.494 253.098 592.494 253.098 L 606.128 252.989 L 619.762 252.828 L 639.836 216.739 C 650.875 196.828 660.017 180.597 660.181 180.597 C 660.506 180.597 711.691 268.195 717.264 278.258 C 720.995 285.021 724.513 289.891 725.649 289.891 C 726.894 289.891 738.798 278.475 743.072 273.226 C 774.399 234.379 774.616 178.919 743.504 140.071 C 720.402 111.177 684.042 96.299 647.737 100.79 Z" style="stroke-miterlimit: 1; stroke: rgb(1, 114, 178); stroke-width: 3px; stroke-opacity: 0.32; fill: rgb(132, 137, 144);">
    <title>LOGO</title>
  </path>
  <text style="fill: rgb(255, 255, 255); font-family: Arial, sans-serif; font-size: 21.2px; white-space: pre;" x="449.576" y="443.115"><title>SUBTITLE</title>The software architects develop in Arcaelas.</text>
  <g transform="matrix(0.458186, 0, 0, 0.458186, 134.617111, 367.220856)" style="">
    <title>JS</title>
    <path d="M 951.721 341.045 C 950.261 341.045 948.811 340.662 947.531 339.925 L 934.194 332.029 C 932.202 330.915 933.174 330.521 933.831 330.294 C 936.487 329.364 937.026 329.154 939.861 327.544 C 940.159 327.374 940.549 327.434 940.854 327.614 L 951.1 333.694 C 951.47 333.894 951.995 333.894 952.338 333.694 L 992.288 310.634 C 992.658 310.424 992.898 309.994 992.898 309.554 L 992.898 263.454 C 992.898 262.994 992.658 262.584 992.28 262.354 L 952.346 239.314 C 951.976 239.094 951.486 239.094 951.116 239.314 L 911.19 262.354 C 910.803 262.574 910.557 263.004 910.557 263.444 L 910.557 309.544 C 910.557 309.984 910.797 310.404 911.177 310.614 L 922.117 316.934 C 928.057 319.904 931.687 316.404 931.687 312.884 L 931.687 267.384 C 931.687 266.734 932.197 266.234 932.847 266.234 L 937.907 266.234 C 938.537 266.234 939.057 266.734 939.057 267.384 L 939.057 312.904 C 939.057 320.824 934.737 325.374 927.227 325.374 C 924.917 325.374 923.097 325.374 918.017 322.874 L 907.537 316.834 C 904.947 315.334 903.347 312.534 903.347 309.544 L 903.347 263.444 C 903.347 260.444 904.947 257.644 907.537 256.164 L 947.527 233.094 C 950.057 231.664 953.417 231.664 955.927 233.094 L 995.867 256.174 C 998.447 257.664 1000.057 260.454 1000.057 263.454 L 1000.057 309.554 C 1000.057 312.544 998.447 315.334 995.867 316.834 L 955.927 339.904 C 954.647 340.644 953.197 341.024 951.717 341.024" fill="#689f63"></path>
    <path d="M 964.061 309.279 C 946.581 309.279 942.916 301.255 942.916 294.525 C 942.916 293.885 943.432 293.375 944.073 293.375 L 949.233 293.375 C 949.803 293.375 950.283 293.79 950.373 294.353 C 951.153 299.611 953.473 302.263 964.043 302.263 C 972.463 302.263 976.043 300.361 976.043 295.896 C 976.043 293.326 975.023 291.416 961.943 290.136 C 951.003 289.056 944.243 286.646 944.243 277.896 C 944.243 269.836 951.043 265.036 962.433 265.036 C 975.223 265.036 981.563 269.476 982.363 279.016 C 982.393 279.346 982.273 279.666 982.053 279.906 C 981.833 280.136 981.523 280.276 981.203 280.276 L 976.013 280.276 C 975.473 280.276 975.003 279.896 974.893 279.376 C 973.643 273.846 970.623 272.076 962.413 272.076 C 953.223 272.076 952.153 275.276 952.153 277.676 C 952.153 280.586 953.413 281.436 965.813 283.076 C 978.093 284.706 983.923 287.006 983.923 295.636 C 983.923 304.336 976.663 309.326 964.003 309.326 M 1012.663 260.436 L 1014.003 260.436 C 1015.103 260.436 1015.313 259.666 1015.313 259.216 C 1015.313 258.036 1014.503 258.036 1014.053 258.036 L 1012.673 258.036 Z M 1011.033 256.656 L 1014.003 256.656 C 1015.023 256.656 1017.023 256.656 1017.023 258.936 C 1017.023 260.526 1016.003 260.856 1015.393 261.056 C 1016.583 261.136 1016.663 261.916 1016.823 263.016 C 1016.903 263.706 1017.033 264.896 1017.273 265.296 L 1015.443 265.296 C 1015.393 264.896 1015.113 262.696 1015.113 262.576 C 1014.993 262.086 1014.823 261.846 1014.213 261.846 L 1012.703 261.846 L 1012.703 265.306 L 1011.033 265.306 Z M 1007.463 260.956 C 1007.463 264.536 1010.353 267.436 1013.903 267.436 C 1017.483 267.436 1020.373 264.476 1020.373 260.956 C 1020.373 257.366 1017.443 254.516 1013.893 254.516 C 1010.393 254.516 1007.453 257.326 1007.453 260.946 M 1021.613 260.976 C 1021.613 265.216 1018.143 268.676 1013.913 268.676 C 1009.713 268.676 1006.213 265.256 1006.213 260.976 C 1006.213 256.616 1009.793 253.276 1013.913 253.276 C 1018.063 253.276 1021.603 256.626 1021.603 260.976" fill="#689f63"></path>
  </g>
  <g style="" transform="matrix(0.248178, 0, 0, 0.248178, 474.983887, 456.128784)">
    <title>NODE</title>
    <path fill-rule="evenodd" d="M 828.01 160.665 C 828.01 158.825 827.04 157.135 825.452 156.22 L 783.096 131.85 C 782.381 131.43 781.58 131.21 780.768 131.18 L 780.33 131.18 C 779.518 131.21 778.717 131.43 777.99 131.85 L 735.636 156.22 C 734.058 157.14 733.074 158.83 733.074 160.67 L 733.167 226.31 C 733.167 227.22 733.637 228.07 734.437 228.52 C 735.217 229 736.197 229 736.977 228.52 L 762.157 214.1 C 763.747 213.154 764.717 211.482 764.717 209.66 L 764.717 178.995 C 764.717 177.165 765.687 175.475 767.272 174.565 L 777.992 168.391 C 778.788 167.931 779.662 167.703 780.552 167.703 C 781.428 167.703 782.322 167.929 783.096 168.39 L 793.811 174.562 C 795.397 175.472 796.371 177.162 796.371 178.992 L 796.371 209.655 C 796.371 211.475 797.354 213.155 798.936 214.095 L 824.1 228.505 C 824.89 228.975 825.873 228.975 826.66 228.505 C 827.436 228.055 827.928 227.205 827.928 226.295 Z M 1027.878 194.841 C 1027.878 195.298 1027.635 195.721 1027.238 195.947 L 1012.69 204.333 C 1012.295 204.56 1011.807 204.56 1011.413 204.333 L 996.863 195.947 C 996.463 195.72 996.223 195.297 996.223 194.841 L 996.223 178.045 C 996.223 177.587 996.463 177.165 996.853 176.935 L 1011.393 168.535 C 1011.793 168.305 1012.283 168.305 1012.683 168.535 L 1027.233 176.935 C 1027.633 177.165 1027.873 177.587 1027.873 178.045 Z M 1031.808 70.439 C 1031.014 69.997 1030.048 70.009 1029.264 70.466 C 1028.484 70.926 1028.002 71.766 1028.002 72.676 L 1028.002 137.676 C 1028.002 138.316 1027.662 138.906 1027.108 139.226 C 1026.558 139.546 1025.873 139.546 1025.318 139.226 L 1014.708 133.115 C 1013.128 132.201 1011.182 132.201 1009.596 133.115 L 967.226 157.568 C 965.643 158.478 964.666 160.168 964.666 161.988 L 964.666 210.908 C 964.666 212.738 965.643 214.418 967.226 215.338 L 1009.596 239.808 C 1011.178 240.718 1013.126 240.718 1014.713 239.808 L 1057.083 215.328 C 1058.663 214.408 1059.643 212.728 1059.643 210.898 L 1059.643 88.978 C 1059.643 87.122 1058.633 85.415 1057.013 84.508 Z M 1172.901 177.603 C 1174.475 176.689 1175.444 175.001 1175.444 173.181 L 1175.444 161.325 C 1175.444 159.501 1174.474 157.818 1172.897 156.9 L 1130.797 132.46 C 1129.207 131.54 1127.257 131.54 1125.667 132.46 L 1083.307 156.91 C 1081.717 157.83 1080.747 159.51 1080.747 161.34 L 1080.747 210.24 C 1080.747 212.08 1081.737 213.78 1083.327 214.69 L 1125.417 238.68 C 1126.967 239.57 1128.867 239.58 1130.437 238.71 L 1155.897 224.56 C 1156.697 224.11 1157.207 223.26 1157.207 222.34 C 1157.207 221.42 1156.717 220.56 1155.917 220.11 L 1113.297 195.65 C 1112.497 195.2 1112.007 194.35 1112.007 193.44 L 1112.007 178.1 C 1112.007 177.184 1112.487 176.34 1113.287 175.884 L 1126.547 168.234 C 1127.337 167.774 1128.307 167.774 1129.097 168.234 L 1142.367 175.884 C 1143.157 176.334 1143.647 177.184 1143.647 178.094 L 1143.647 190.154 C 1143.647 191.064 1144.137 191.914 1144.927 192.374 C 1145.717 192.824 1146.697 192.824 1147.487 192.364 Z M 1172.901 177.603" fill="#333"></path>
    <path fill-rule="evenodd" d="M 1127.612 175.315 C 1127.912 175.138 1128.288 175.138 1128.592 175.315 L 1136.722 180.005 C 1137.026 180.181 1137.212 180.505 1137.212 180.855 L 1137.212 190.245 C 1137.212 190.595 1137.026 190.919 1136.722 191.095 L 1128.592 195.785 C 1128.288 195.962 1127.912 195.962 1127.612 195.785 L 1119.487 191.095 C 1119.177 190.919 1118.987 190.595 1118.987 190.245 L 1118.987 180.855 C 1118.987 180.505 1119.167 180.181 1119.477 180.005 Z M 1127.612 175.315" fill="#689f63"></path>
    <g clip-path="url(#a)" transform="matrix(1, 0, 0, 1, 654.767883, -93.900681)">
      <path d="M331.363 246.793l-118.715-58.19-60.87 124.174L270.49 370.97zm0 0" fill="url(#b)"></path>
    </g>
    <g clip-path="url(#c)" transform="matrix(1, 0, 0, 1, 654.767883, -93.900681)">
      <path d="M144.07 264.004l83.825 113.453 110.86-81.906-83.83-113.45zm0 0" fill="url(#d)"></path>
    </g>
    <g clip-path="url(#e)" transform="matrix(1, 0, 0, 1, 654.767883, -93.900681)">
      <path d="M197.02 225.934v107.43h91.683v-107.43zm0 0" fill="url(#f)"></path>
    </g>
  </g>
  <text style="fill: rgb(255, 255, 255); font-family: Arial, sans-serif; font-size: 45.6px; stroke: rgb(13, 17, 23); stroke-opacity: 0.75; white-space: pre;" x="424.867" y="375.925">ARCAELAS INSIDERS</text>
</svg>